<svg width="22" height="21" viewBox="0 0 22 21" fill="none" xmlns="http://www.w3.org/2000/svg">
<path d="M9.93413 18.1446L9.93305 18.1436C7.12872 15.6006 4.86146 13.5403 3.28651 11.6135C1.7198 9.69672 0.916748 8.00385 0.916748 6.20833C0.916748 3.27594 3.20173 1 6.12508 1C7.78335 1 9.38734 1.77584 10.431 2.9918L11.0001 3.65491L11.5692 2.9918C12.6128 1.77584 14.2168 1 15.8751 1C18.7984 1 21.0834 3.27594 21.0834 6.20833C21.0834 8.00385 20.2804 9.69672 18.7137 11.6135C17.1387 13.5403 14.8714 15.6006 12.0671 18.1436L12.066 18.1446L11.0001 19.1149L9.93413 18.1446Z" stroke="#252324" stroke-width="1.5"/>
</svg>
