<svg width="48" height="42" viewBox="0 0 48 42" fill="none" xmlns="http://www.w3.org/2000/svg">
<path d="M44.625 0.84375H3.375C2.50476 0.84375 1.67016 1.18945 1.05481 1.80481C0.439452 2.42016 0.09375 3.25476 0.09375 4.125V37.875C0.09375 38.7452 0.439452 39.5798 1.05481 40.1952C1.67016 40.8105 2.50476 41.1562 3.375 41.1562H44.625C45.4952 41.1562 46.3298 40.8105 46.9452 40.1952C47.5605 39.5798 47.9062 38.7452 47.9062 37.875V4.125C47.9062 3.25476 47.5605 2.42016 46.9452 1.80481C46.3298 1.18945 45.4952 0.84375 44.625 0.84375ZM3.375 3.65625H44.625C44.7493 3.65625 44.8685 3.70564 44.9565 3.79354C45.0444 3.88145 45.0938 4.00068 45.0938 4.125V29.3367L38.1867 22.4297C37.882 22.125 37.5203 21.8832 37.1222 21.7183C36.724 21.5534 36.2973 21.4685 35.8664 21.4685C35.4355 21.4685 35.0088 21.5534 34.6106 21.7183C34.2125 21.8832 33.8508 22.125 33.5461 22.4297L28.5258 27.45L17.8828 16.8047C17.5781 16.5 17.2164 16.2582 16.8183 16.0933C16.4201 15.9284 15.9934 15.8435 15.5625 15.8435C15.1316 15.8435 14.7049 15.9284 14.3067 16.0933C13.9086 16.2582 13.5469 16.5 13.2422 16.8047L2.90625 27.1406V4.125C2.90625 4.00068 2.95564 3.88145 3.04354 3.79354C3.13145 3.70564 3.25068 3.65625 3.375 3.65625ZM2.90625 37.875V31.118L15.2297 18.7945C15.2733 18.7506 15.3251 18.7157 15.3822 18.6919C15.4394 18.6681 15.5006 18.6559 15.5625 18.6559C15.6244 18.6559 15.6856 18.6681 15.7428 18.6919C15.7999 18.7157 15.8517 18.7506 15.8953 18.7945L35.4445 38.3438H3.375C3.25068 38.3438 3.13145 38.2944 3.04354 38.2065C2.95564 38.1185 2.90625 37.9993 2.90625 37.875ZM44.625 38.3438H39.4219L30.5156 29.4375L35.5336 24.4172C35.5771 24.3736 35.6288 24.339 35.6857 24.3154C35.7426 24.2918 35.8036 24.2797 35.8652 24.2797C35.9268 24.2797 35.9878 24.2918 36.0447 24.3154C36.1016 24.339 36.1533 24.3736 36.1969 24.4172L45.1031 33.3234V37.875C45.1031 37.9374 45.0907 37.9991 45.0666 38.0566C45.0424 38.1141 45.0071 38.1662 44.9625 38.2098C44.918 38.2535 44.8652 38.2878 44.8073 38.3108C44.7493 38.3338 44.6873 38.345 44.625 38.3438ZM28.2188 14.4375C28.2188 13.974 28.3562 13.5208 28.6137 13.1354C28.8713 12.75 29.2373 12.4496 29.6656 12.2722C30.0939 12.0948 30.5651 12.0484 31.0197 12.1388C31.4744 12.2292 31.892 12.4524 32.2198 12.7802C32.5476 13.108 32.7708 13.5256 32.8612 13.9803C32.9516 14.4349 32.9052 14.9062 32.7278 15.3344C32.5505 15.7627 32.25 16.1287 31.8646 16.3863C31.4792 16.6438 31.026 16.7812 30.5625 16.7812C29.9409 16.7812 29.3448 16.5343 28.9052 16.0948C28.4657 15.6552 28.2188 15.0591 28.2188 14.4375Z" fill="#088133"/>
</svg>
