<svg width="22" height="22" viewBox="0 0 22 22" fill="none" xmlns="http://www.w3.org/2000/svg">
<path d="M7.28474 1.71436L3.57082 1.71993C3.07833 1.71993 2.606 1.91559 2.25776 2.26387C1.90951 2.61215 1.71387 3.08452 1.71387 3.57707V7.28578C1.71398 7.74094 1.88123 8.18022 2.18384 8.52018C2.48646 8.86014 2.90337 9.07713 3.35542 9.12993L3.57454 9.14293L7.28845 9.13735C7.78063 9.13686 8.25247 8.94098 8.60032 8.59275C8.94817 8.24453 9.14355 7.77244 9.14355 7.28021V3.57336C9.1439 3.11787 8.97686 2.67815 8.6742 2.3378C8.37154 1.99744 7.95436 1.78019 7.502 1.72736L7.28474 1.71436ZM18.4265 1.71436L14.7126 1.71993C14.2201 1.71993 13.7477 1.91559 13.3995 2.26387C13.0513 2.61215 12.8556 3.08452 12.8556 3.57707V7.28578C12.8557 7.74094 13.023 8.18022 13.3256 8.52018C13.6282 8.86014 14.0451 9.07713 14.4972 9.12993L14.7163 9.14293L18.4302 9.13735C18.9224 9.13686 19.3942 8.94098 19.7421 8.59275C20.0899 8.24453 20.2853 7.77244 20.2853 7.28021V3.57336C20.2856 3.11787 20.1186 2.67815 19.8159 2.3378C19.5133 1.99744 19.0961 1.78019 18.6437 1.72736L18.4265 1.71436ZM7.28474 12.8572L3.57082 12.8628C3.07833 12.8628 2.606 13.0584 2.25776 13.4067C1.90951 13.755 1.71387 14.2274 1.71387 14.7199V18.4286C1.71398 18.8838 1.88123 19.3231 2.18384 19.663C2.48646 20.003 2.90337 20.22 3.35542 20.2728L3.57454 20.2858L7.28845 20.2802C7.78063 20.2797 8.25247 20.0838 8.60032 19.7356C8.94817 19.3874 9.14355 18.9153 9.14355 18.4231V14.7162C9.1439 14.2607 8.97686 13.821 8.6742 13.4807C8.37154 13.1403 7.95436 12.923 7.502 12.8702L7.28474 12.8572ZM18.4265 12.8572L14.7126 12.8628C14.2201 12.8628 13.7477 13.0584 13.3995 13.4067C13.0513 13.755 12.8556 14.2274 12.8556 14.7199V18.4286C12.8557 18.8838 13.023 19.3231 13.3256 19.663C13.6282 20.003 14.0451 20.22 14.4972 20.2728L14.7163 20.2858L18.4302 20.2802C18.9224 20.2797 19.3942 20.0838 19.7421 19.7356C20.0899 19.3874 20.2853 18.9153 20.2853 18.4231V14.7162C20.2856 14.2607 20.1186 13.821 19.8159 13.4807C19.5133 13.1403 19.0961 12.923 18.6437 12.8702L18.4265 12.8572Z" stroke="#088133" stroke-width="1.5" stroke-linecap="round" stroke-linejoin="round"/>
</svg>
