<svg width="20" height="19" viewBox="0 0 20 19" fill="none" xmlns="http://www.w3.org/2000/svg">
<path d="M9.05489 16.4754L9.05381 16.4744C6.46406 14.126 4.37492 12.2274 2.92445 10.4529C1.48222 8.68839 0.75 7.13843 0.75 5.5C0.75 2.82511 2.83332 0.75 5.5 0.75C7.01327 0.75 8.4781 1.45834 9.43087 2.56846L10 3.23157L10.5691 2.56846C11.5219 1.45834 12.9867 0.75 14.5 0.75C17.1667 0.75 19.25 2.82511 19.25 5.5C19.25 7.13843 18.5178 8.68839 17.0756 10.4529C15.6251 12.2274 13.5359 14.126 10.9462 16.4744L10.9451 16.4754L10 17.3358L9.05489 16.4754Z" stroke="#252324" stroke-width="1.5"/>
</svg>
