<svg width="20" height="19" viewBox="0 0 20 19" fill="none" xmlns="http://www.w3.org/2000/svg">
<path fill-rule="evenodd" clip-rule="evenodd" d="M2.73303 1.0433C3.95003 -0.166703 5.95403 0.0482968 6.97303 1.4103L8.23503 3.0943C9.06503 4.2023 8.99103 5.7503 8.00603 6.7293L7.76803 6.9673C7.74115 7.06722 7.73841 7.1721 7.76003 7.2733C7.82303 7.6813 8.16403 8.5453 9.59203 9.9653C11.02 11.3853 11.89 11.7253 12.304 11.7893C12.4082 11.8115 12.5162 11.8084 12.619 11.7803L13.027 11.3743C13.903 10.5043 15.247 10.3413 16.331 10.9303L18.241 11.9703C19.878 12.8583 20.291 15.0823 18.951 16.4153L17.53 17.8273C17.082 18.2723 16.48 18.6433 15.746 18.7123C13.936 18.8813 9.71903 18.6653 5.28603 14.2583C1.14903 10.1443 0.355027 6.5563 0.254027 4.7883C0.204027 3.8943 0.626027 3.1383 1.16403 2.6043L2.73303 1.0433ZM5.77303 2.3093C5.26603 1.6323 4.32203 1.5783 3.79003 2.1073L2.22003 3.6673C1.89003 3.9953 1.73203 4.3573 1.75203 4.7033C1.83203 6.1083 2.47203 9.3453 6.34403 13.1953C10.406 17.2333 14.157 17.3543 15.607 17.2183C15.903 17.1913 16.197 17.0373 16.472 16.7643L17.892 15.3513C18.47 14.7773 18.343 13.7313 17.525 13.2873L15.615 12.2483C15.087 11.9623 14.469 12.0563 14.085 12.4383L13.63 12.8913L13.1 12.3593C13.63 12.8913 13.629 12.8923 13.628 12.8923L13.627 12.8943L13.624 12.8973L13.617 12.9033L13.602 12.9173C13.5595 12.9561 13.514 12.9915 13.466 13.0233C13.386 13.0763 13.28 13.1353 13.147 13.1843C12.877 13.2853 12.519 13.3393 12.077 13.2713C11.21 13.1383 10.061 12.5473 8.53403 11.0293C7.00803 9.5113 6.41203 8.3693 6.27803 7.5033C6.20903 7.0613 6.26403 6.7033 6.36603 6.4333C6.42259 6.28156 6.50293 6.13979 6.60403 6.0133L6.63603 5.9783L6.65003 5.9633L6.65603 5.9573L6.65903 5.9543L6.66103 5.9523L6.94903 5.6663C7.37703 5.2393 7.43703 4.5323 7.03403 3.9933L5.77303 2.3093Z" fill="#252324"/>
</svg>
