<svg width="21" height="21" viewBox="0 0 21 21" fill="none" xmlns="http://www.w3.org/2000/svg">
<path d="M16.031 14.617L20.314 18.899L18.899 20.314L14.617 16.031C13.0237 17.3082 11.042 18.0029 9 18C4.032 18 0 13.968 0 9C0 4.032 4.032 0 9 0C13.968 0 18 4.032 18 9C18.0029 11.042 17.3082 13.0237 16.031 14.617ZM14.025 13.875C15.2938 12.5697 16.0025 10.8204 16 9C16 5.133 12.867 2 9 2C5.133 2 2 5.133 2 9C2 12.867 5.133 16 9 16C10.8204 16.0025 12.5697 15.2938 13.875 14.025L14.025 13.875Z" fill="#252324"/>
</svg>
